<?xml version="1.0" encoding="utf-8"?>
<!-- Generator: Adobe Illustrator 24.0.1, SVG Export Plug-In . SVG Version: 6.00 Build 0)  -->
<svg version="1.1" id="Layer_1" xmlns="http://www.w3.org/2000/svg" xmlns:xlink="http://www.w3.org/1999/xlink" x="0px" y="0px"
	 viewBox="0 0 144 131.91" style="enable-background:new 0 0 144 131.91;" xml:space="preserve">
<style type="text/css">
	.st0{fill:#D6AF6F;}
</style>
<g>
	<g>
		<g>
			<g>
				<path class="st0" d="M104.66,55.18c-2.23,0-4.37-0.8-6.09-2.21c-1.9,1.55-4.33,2.36-6.77,2.19c-3.78-0.28-6.89-2.82-8.3-6.8l0,0
					c-3.66-10.32,10.67-19.49,13.59-21.22c0.92-0.54,2.05-0.54,2.97,0c2.91,1.73,17.26,10.88,13.59,21.22
					c-1.41,3.98-4.51,6.52-8.3,6.8C105.11,55.17,104.88,55.18,104.66,55.18z M98.56,45.57c1.07,0,2.06,0.59,2.56,1.54
					c0.79,1.48,2.28,2.38,3.78,2.26c1.46-0.11,2.62-1.16,3.26-2.95c1.64-4.62-5.39-10.52-9.6-13.35c-4.21,2.83-11.24,8.74-9.6,13.35
					c0.64,1.8,1.79,2.84,3.25,2.95c1.52,0.12,3-0.77,3.78-2.26C96.5,46.16,97.49,45.57,98.56,45.57z"/>
				<path class="st0" d="M125.1,52.3c-4.15,0-7.54-3.38-7.54-7.54s3.38-7.54,7.54-7.54s7.54,3.38,7.54,7.54S129.25,52.3,125.1,52.3z
					 M125.1,43.06c-0.94,0-1.71,0.77-1.71,1.71c0,0.94,0.77,1.71,1.71,1.71c0.95,0,1.72-0.77,1.72-1.71
					C126.82,43.82,126.05,43.06,125.1,43.06z"/>
				<path class="st0" d="M35.7,55.19c-4.62,0-8.39-3.76-8.39-8.39v-8.6c0-1.61,1.31-2.91,2.91-2.91s2.91,1.31,2.91,2.91v8.6
					c0,1.41,1.15,2.56,2.56,2.56s2.56-1.15,2.56-2.56v-8.6c0-1.61,1.31-2.91,2.91-2.91c1.61,0,2.91,1.31,2.91,2.91v8.6
					C44.09,51.43,40.33,55.19,35.7,55.19z"/>
				<g>
					<path class="st0" d="M129.83,66.14H19.64c-4.62,0-8.39-3.76-8.39-8.39s3.76-8.39,8.39-8.39h1.57c1.61,0,2.91,1.31,2.91,2.91
						c0,1.61-1.31,2.91-2.91,2.91h-1.57c-1.41,0-2.56,1.15-2.56,2.56s1.15,2.56,2.56,2.56h110.19c1.61,0,2.91,1.31,2.91,2.91
						C132.74,64.84,131.44,66.14,129.83,66.14z"/>
					<path class="st0" d="M24.51,55.19h-3.29c-1.61,0-2.91-1.31-2.91-2.91c0-1.61,1.31-2.91,2.91-2.91h3.29
						c1.55,0,2.81-1.26,2.81-2.81V38.2c0-1.61,1.31-2.91,2.91-2.91s2.91,1.31,2.91,2.91v8.36C33.14,51.32,29.27,55.19,24.51,55.19z"
						/>
				</g>
				<path class="st0" d="M77.15,55.19H54.78c-4.62,0-8.39-3.76-8.39-8.39v-8.6c0-1.61,1.31-2.91,2.91-2.91
					c1.61,0,2.91,1.31,2.91,2.91v8.6c0,1.41,1.15,2.56,2.56,2.56h22.37c1.61,0,2.91,1.31,2.91,2.91
					C80.06,53.89,78.76,55.19,77.15,55.19z"/>
				<path class="st0" d="M77.14,32.54H30.21c-1.61,0-2.91-1.31-2.91-2.91s1.31-2.91,2.91-2.91h46.92c1.61,0,2.91,1.31,2.91,2.91
					S78.74,32.54,77.14,32.54z"/>
				<path class="st0" d="M41.18,24.94H30.23c-1.16,0-2.1-0.94-2.1-2.1s0.94-2.1,2.1-2.1h10.95c1.16,0,2.1,0.94,2.1,2.1
					S42.34,24.94,41.18,24.94z"/>
			</g>
			<g>
				<path class="st0" d="M26.89,92.78c-1.6,0-2.89-1.29-2.89-2.89V74.81c0-1.6,1.29-2.89,2.89-2.89h19.04c1.6,0,2.89,1.29,2.89,2.89
					c0,1.6-1.29,2.89-2.89,2.89H29.78v12.19C29.78,91.49,28.49,92.78,26.89,92.78z"/>
				<path class="st0" d="M36.5,111.16c-4.79,0-9.27-2.37-11.99-6.34c-0.9-1.31-0.57-3.11,0.75-4.02c1.31-0.9,3.11-0.57,4.02,0.75
					c1.64,2.4,4.34,3.83,7.23,3.83c4.84,0,8.78-3.94,8.78-8.78s-3.94-8.78-8.78-8.78c-2.88,0-5.58,1.43-7.23,3.83
					c-0.91,1.32-2.7,1.65-4.02,0.75c-1.32-0.9-1.65-2.7-0.75-4.02c2.72-3.97,7.21-6.34,11.99-6.34c8.03,0,14.56,6.53,14.56,14.56
					C51.06,104.63,44.53,111.16,36.5,111.16z"/>
				<path class="st0" d="M129.83,111.16c-1.6,0-2.89-1.29-2.89-2.89v-9.62c0-3.71-3.02-6.73-6.73-6.73c-3.71,0-6.73,3.02-6.73,6.73
					c0,1.6-1.29,2.89-2.89,2.89c-1.6,0-2.89-1.29-2.89-2.89c0-6.9,5.61-12.51,12.51-12.51c6.9,0,12.51,5.61,12.51,12.51v9.62
					C132.72,109.87,131.43,111.16,129.83,111.16z"/>
				<path class="st0" d="M110.59,111.16c-1.6,0-2.89-1.29-2.89-2.89V74.81c0-1.6,1.29-2.89,2.89-2.89c1.6,0,2.89,1.29,2.89,2.89
					v33.46C113.48,109.87,112.19,111.16,110.59,111.16z"/>
				<path class="st0" d="M66.61,111.16c-6.84,0-12.41-5.57-12.41-12.41V84.33c0-6.84,5.57-12.41,12.41-12.41s12.41,5.57,12.41,12.41
					v14.42C79.02,105.6,73.46,111.16,66.61,111.16z M66.61,77.7c-3.65,0-6.63,2.97-6.63,6.63v14.42c0,3.65,2.97,6.63,6.63,6.63
					c3.65,0,6.63-2.97,6.63-6.63V84.33C73.24,80.67,70.27,77.7,66.61,77.7z"/>
				<path class="st0" d="M100.76,111.18h-3.1c-6.98,0-12.58-5.6-12.58-12.48V74.81c0-1.6,1.3-2.91,2.91-2.91s2.91,1.3,2.91,2.91
					V98.7c0,3.68,2.99,6.67,6.66,6.67h3.21c1.6,0,2.91,1.3,2.91,2.91S102.36,111.18,100.76,111.18z"/>
				<path class="st0" d="M100.76,85.25H87.99c-1.6,0-2.91-1.3-2.91-2.91s1.3-2.91,2.91-2.91h12.77c1.6,0,2.91,1.3,2.91,2.91
					S102.36,85.25,100.76,85.25z"/>
			</g>
		</g>
	</g>
</g>
</svg>
