<?xml version="1.0" encoding="utf-8"?>
<!-- Generator: Adobe Illustrator 24.0.1, SVG Export Plug-In . SVG Version: 6.00 Build 0)  -->
<svg version="1.1" id="Layer_1" xmlns="http://www.w3.org/2000/svg" xmlns:xlink="http://www.w3.org/1999/xlink" x="0px" y="0px"
	 viewBox="0 0 283 192.22" style="enable-background:new 0 0 283 192.22;" xml:space="preserve">
<style type="text/css">
	.st0{fill:#FDF90C;}
	.st1{fill:#F2F0F0;}
	.st2{fill:none;stroke:#FFFFFF;stroke-width:0.25;stroke-miterlimit:10;}
	.st3{fill:none;stroke:#FFFFFF;stroke-miterlimit:10;}
	.st4{fill:#FAF713;stroke:#2A0002;stroke-width:0.25;stroke-miterlimit:10;}
	.st5{fill:#C90E15;}
	.st6{fill:none;stroke:#2A0002;stroke-miterlimit:10;}
	.st7{fill:#FFFFFF;}
	.st8{fill:#C90E15;stroke:#2A0002;stroke-miterlimit:10;}
	.st9{fill:#FAF713;stroke:#000000;stroke-width:0.5;stroke-miterlimit:10;}
	.st10{opacity:0.69;fill:#FFFFFF;}
	.st11{fill:#B3B3B3;}
</style>
<g>
	<g>
		<rect x="13.47" y="16.09" class="st0" width="252.82" height="159.9"/>
		<path d="M264.79,17.59v156.9H14.97V17.59H264.79 M267.79,14.59h-3H14.97h-3v3v156.9v3h3h249.82h3v-3V17.59V14.59L267.79,14.59z"/>
	</g>
	<path d="M197.42,95.64c0.13,0.46,10.33-2.28,11.54-10.18s8.2-12,13.36-9.87c5.16,2.13,8.05,7.9,3.8,10.93
		c-4.25,3.04-10.93,8.96-7.44,10.48c5.01,3.19,24-4.1,26.43,5.77c2.43,9.87-8.81,9.87-12.15,9.87c-3.34,0-13.67,3.34-9.11,4.86
		s19.14,1.06,18.83,6.68s-2.28,13.36-9.57,11.39c-3.64-0.99-4.4-1.3-7.04-2.17c-1.44,2.33-2.78,5.31-2.36,5.95
		c3.12,4.76,2.57,3.8,1.03,7.39c0,0-0.81,5.29-1.26,6.2s-9.04,23.63-20.89,20.29c-11.85-3.34-16.36-7.52-16.36-7.52l2.22,3.54
		l-94.12,0.04l2.78-2.86c0,0-8.43,4.83-15.72,4.83s-17.31-9.72-18.53-21.11c-1.21-11.39-3.04-3.49-6.07-11.69
		c0,0-4.71,4.25-9.87,4.25s-10.63-6.99-7.29-11.24c3.34-4.25,14.88-9.87,13.06-12.3c-2.13-6.38-18.38,0.15-18.38-10.48
		s9.26-10.48,13.21-9.11c3.95,1.37,14.58,4.4,13.36-1.37c-1.21-5.77-5.01-11.69-1.82-16.25c3.19-4.56,11.54-8.5,14.28-0.61
		s3.8,17.01,3.8,17.01s6.99-15.64,18.53-19.29c0,0,0-4.56,1.67-6.99s0.15-3.95-5.62-5.16c-5.77-1.21-10.02-10.02-8.35-20.35
		c1.67-10.33,18.98-23.84,29.77-18.38s19.14,20.05,19.14,20.05l20.96-0.46c0,0,0-16.4,13.21-18.68s21.87,4.71,24.3,7.14
		c2.43,2.43,6.38,6.68,6.38,16.25s-3.49,14.12-14.88,16.25c0,0-2.43,4.56-1.37,5.47s2.28,5.92,2.28,5.92S194.24,84.4,197.42,95.64z"
		/>
	<path class="st1" d="M152.85,100.26c0,0,10.45-4,13.68-6.15c3.23-2.15,13.37-1.08,18.75,6.15c5.38,7.23,2.92,16.76-3.38,21.68
		c-6.3,4.92-16.14,13.99-45.5,13.99s-50.42-12.76-50.42-27.21s15.07-18.29,19.83-15.99c4.77,2.31,6,6.76,14.45,6.76
		c0,0-2.92,6.46,2.31,10.76c5.23,4.3,8.15,5.38,13.99,5.38s14.6-3.69,15.83-7.99S152.85,100.26,152.85,100.26z"/>
	<path class="st2" d="M184.64,128.63l3.1,4.89c0,0,2.26,4.52,9.03,4.52c6.77,0,6.77,0,6.77,0s7.95,15.57,15.41,12.25
		c11.09-4.93,6.13-8.73,3.16-11.7c-2.97-2.97-4.64-9.84,1.86-6.5l2.25,1.15"/>
	<path class="st2" d="M77.58,98.2c-0.16,1.15-0.51,4.71-0.51,5.96c0,15.53,12.96,31.63,35.1,35.63c0,0,0.15,5.53-4.92,14.14
		c-5.07,8.61-13.07,15.37-13.07,15.37h94.54c0,0-17.99-24.9-19.98-29.52c-2-4.61,18.01-4.81,26.31-25.72
		c2.49-7.04,3.25-13.45,2.43-18.4"/>
	<path class="st3" d="M63.59,153.78"/>
	<path class="st1" d="M149.01,67.67c0,0,11.38-0.31,13.42,8.15c0,0,5.39,14.57-7.12,17.83c-14.29,3.73-17.38-5.73-18.92-11.72
		c-1.54-6-1.06,11.88-15.21,11.88s-14.45-10.3-14.45-14.14s3.23-13.37,15.68-12.45c0,0-5.23,4.3-5.23,10.91
		c0,6.61,10.12,8.43,13.42,5.79c3.32-2.66,4.05-5.29,5.37-5.2c1.9,0,2.12,5.26,8.73,5.26C151.32,83.97,158.39,75.97,149.01,67.67z"
		/>
	<path class="st4" d="M204.81,44.77c0.61-0.15,7.07,8.15,3.07,14.6s-7.84,7.84-7.84,7.84s11.68,0.31,14.14-9.84
		C215.27,47.69,204.81,44.77,204.81,44.77z"/>
	<path class="st4" d="M217.27,47.23c0.61-0.15,7.07,8.15,3.07,14.6s-7.84,7.84-7.84,7.84s11.68,0.31,14.14-9.84
		C227.72,50.15,217.27,47.23,217.27,47.23z"/>
	<path class="st4" d="M76.84,38.77c-0.61-0.15-7.07,8.15-3.07,14.6s7.84,7.84,7.84,7.84s-11.68,0.31-14.14-9.84
		C66.38,41.69,76.84,38.77,76.84,38.77z"/>
	<path class="st4" d="M64.38,41.23c-0.61-0.15-7.07,8.15-3.07,14.6s7.84,7.84,7.84,7.84s-11.68,0.31-14.14-9.84
		C53.93,44.15,64.38,41.23,64.38,41.23z"/>
	<path class="st5" d="M144.13,147.45c0,0,16.85-5.62,19.5-4.52s1.98,10.13,0.99,11.46c-0.99,1.32-17.73-0.55-20.49-0.99V147.45z"/>
	<path class="st5" d="M135.43,146.35c0,0-20.27-4.3-20.38,0.77c-0.11,5.07-1.87,12.89,6.5,11.9s14.21-7.16,14.21-7.16L135.43,146.35
		z"/>
	<path d="M171.23,103.72c0,0-1.21,3.97,0.55,4.96c1.76,0.99,3.63,1.32,3.63,1.32s-2.75,1.43-4.96,1.43
		C168.25,111.43,169.47,107.36,171.23,103.72z"/>
	<path d="M99.22,111.63c0,0,4.09,0.66,4.84-1.22c0.74-1.88,0.82-3.78,0.82-3.78s1.79,2.53,2.09,4.72
		C107.26,113.53,103.06,112.88,99.22,111.63z"/>
	<path class="st6" d="M105.69,111.76c0,0,10.46,12.34,33.05,12.34s32.49-14.76,32.49-14.76"/>
	<ellipse class="st7" cx="126.07" cy="73.32" rx="2.86" ry="2.64"/>
	<ellipse class="st7" cx="144.46" cy="73.32" rx="2.86" ry="2.64"/>
	<ellipse class="st7" cx="145.16" cy="101.2" rx="2.86" ry="2.64"/>
	<path class="st7" d="M126.07,100.32c0,0,3.22-3.84,8.88-3.39c3.51,0.33,5.04,2.81,5.45,3.8
		C137.72,100.36,135.4,98.71,126.07,100.32z"/>
	<path class="st2" d="M93.33,132.52c-1.25,0.84-3.8,2.25-3.8,2.25c-2.86,0.97-6.69,1.24-9.92,10.25c-3.22,9.01-7.51,9.46-14.17,6.69
		c-6.67-2.77-1.64-10.21,0.12-16.03c1.75-5.82-3.2-1.83-6.84,0.51l-2.45,1.46"/>
	<path class="st8" d="M143.41,154.39h-8.57c-0.55,0-1-0.45-1-1v-6.1c0-0.55,0.45-1,1-1h8.57c0.55,0,1,0.45,1,1v6.1
		C144.41,153.94,143.96,154.39,143.41,154.39z"/>
	<path class="st9" d="M131.19,21.44c0,0-21.91,0.93-21.91,22.84s26.37,18.76,29.16,16.53c4.64-1.11,16.71-10.4,11.7-26.93
		C145.49,21.06,131.19,21.44,131.19,21.44z"/>
	<path class="st2" d="M216.53,108.28c0,0,1.98,7.6-1.32,12.89"/>
	<path class="st2" d="M69.56,122.81c0,0-5.37-5.74-4.98-11.96"/>
	<path class="st10" d="M140.19,31.29c0,0,5.73,7.93,0.88,14.1s-7.71,8.37-15.64,9.25c0,0,14.1,6.39,20.71-5.29
		C152.75,37.68,140.19,31.29,140.19,31.29z"/>
	<path class="st11" d="M266.66,89.85c0,0-11.82,57.02-22.45,63.82S65.17,175.24,65.17,175.24l199.62-0.75L266.66,89.85z"/>
</g>
</svg>
